<svg width="79" height="27" viewBox="0 0 79 27" fill="none" xmlns="http://www.w3.org/2000/svg">
<path d="M11.976 17.024H5.688L4.68 20H0.384L6.48 3.152H11.232L17.328 20H12.984L11.976 17.024ZM10.92 13.856L8.832 7.688L6.768 13.856H10.92ZM23.2873 2.24V20H19.1833V2.24H23.2873ZM28.3254 5.216C27.6054 5.216 27.0134 5.008 26.5494 4.592C26.1014 4.16 25.8774 3.632 25.8774 3.008C25.8774 2.368 26.1014 1.84 26.5494 1.424C27.0134 0.991999 27.6054 0.775999 28.3254 0.775999C29.0294 0.775999 29.6054 0.991999 30.0534 1.424C30.5174 1.84 30.7494 2.368 30.7494 3.008C30.7494 3.632 30.5174 4.16 30.0534 4.592C29.6054 5.008 29.0294 5.216 28.3254 5.216ZM30.3654 6.608V20H26.2614V6.608H30.3654ZM38.4276 6.416C39.3716 6.416 40.1956 6.608 40.8996 6.992C41.6196 7.376 42.1716 7.88 42.5556 8.504V6.608H46.6596V19.976C46.6596 21.208 46.4116 22.32 45.9156 23.312C45.4356 24.32 44.6916 25.12 43.6836 25.712C42.6916 26.304 41.4516 26.6 39.9636 26.6C37.9796 26.6 36.3716 26.128 35.1396 25.184C33.9076 24.256 33.2036 22.992 33.0276 21.392H37.0836C37.2116 21.904 37.5156 22.304 37.9956 22.592C38.4756 22.896 39.0676 23.048 39.7716 23.048C40.6196 23.048 41.2916 22.8 41.7876 22.304C42.2996 21.824 42.5556 21.048 42.5556 19.976V18.08C42.1556 18.704 41.6036 19.216 40.8996 19.616C40.1956 20 39.3716 20.192 38.4276 20.192C37.3236 20.192 36.3236 19.912 35.4276 19.352C34.5316 18.776 33.8196 17.968 33.2916 16.928C32.7796 15.872 32.5236 14.656 32.5236 13.28C32.5236 11.904 32.7796 10.696 33.2916 9.656C33.8196 8.616 34.5316 7.816 35.4276 7.256C36.3236 6.696 37.3236 6.416 38.4276 6.416ZM42.5556 13.304C42.5556 12.28 42.2676 11.472 41.6916 10.88C41.1316 10.288 40.4436 9.992 39.6276 9.992C38.8116 9.992 38.1156 10.288 37.5396 10.88C36.9796 11.456 36.6996 12.256 36.6996 13.28C36.6996 14.304 36.9796 15.12 37.5396 15.728C38.1156 16.32 38.8116 16.616 39.6276 16.616C40.4436 16.616 41.1316 16.32 41.6916 15.728C42.2676 15.136 42.5556 14.328 42.5556 13.304ZM57.7886 6.464C59.3566 6.464 60.6046 6.976 61.5326 8C62.4766 9.008 62.9486 10.4 62.9486 12.176V20H58.8686V12.728C58.8686 11.832 58.6366 11.136 58.1726 10.64C57.7086 10.144 57.0846 9.896 56.3006 9.896C55.5166 9.896 54.8926 10.144 54.4286 10.64C53.9646 11.136 53.7326 11.832 53.7326 12.728V20H49.6286V6.608H53.7326V8.384C54.1486 7.792 54.7086 7.328 55.4126 6.992C56.1166 6.64 56.9086 6.464 57.7886 6.464ZM71.8965 20.192C70.5845 20.192 69.4005 19.912 68.3445 19.352C67.3045 18.792 66.4805 17.992 65.8725 16.952C65.2805 15.912 64.9845 14.696 64.9845 13.304C64.9845 11.928 65.2885 10.72 65.8965 9.68C66.5045 8.624 67.3365 7.816 68.3925 7.256C69.4485 6.696 70.6325 6.416 71.9445 6.416C73.2565 6.416 74.4405 6.696 75.4965 7.256C76.5525 7.816 77.3845 8.624 77.9925 9.68C78.6005 10.72 78.9045 11.928 78.9045 13.304C78.9045 14.68 78.5925 15.896 77.9685 16.952C77.3605 17.992 76.5205 18.792 75.4485 19.352C74.3925 19.912 73.2085 20.192 71.8965 20.192ZM71.8965 16.64C72.6805 16.64 73.3445 16.352 73.8885 15.776C74.4485 15.2 74.7285 14.376 74.7285 13.304C74.7285 12.232 74.4565 11.408 73.9125 10.832C73.3845 10.256 72.7285 9.968 71.9445 9.968C71.1445 9.968 70.4805 10.256 69.9525 10.832C69.4245 11.392 69.1605 12.216 69.1605 13.304C69.1605 14.376 69.4165 15.2 69.9285 15.776C70.4565 16.352 71.1125 16.64 71.8965 16.64Z" fill="#30B0C7"/>
</svg>
